<?xml version="1.0" standalone="no"?>
<!DOCTYPE svg PUBLIC "-//W3C//DTD SVG 20010904//EN"
 "http://www.w3.org/TR/2001/REC-SVG-20010904/DTD/svg10.dtd">
<svg version="1.0" xmlns="http://www.w3.org/2000/svg"
 width="564.000000pt" height="564.000000pt" viewBox="0 0 564.000000 564.000000"
 preserveAspectRatio="xMidYMid meet">

<g transform="translate(0.000000,564.000000) scale(0.100000,-0.100000)"
fill="#000000" stroke="none">
<path d="M3111 4055 c-1 -11 -8 -38 -16 -60 l-14 -40 -1 47 c0 26 -4 50 -10
53 -5 3 -10 -2 -10 -12 0 -10 -7 -27 -15 -37 -20 -27 -19 -52 4 -68 29 -20 37
-64 14 -71 -127 -38 -218 -79 -280 -125 -72 -53 -179 -107 -187 -94 -10 16
-16 78 -9 87 5 6 29 21 56 34 56 28 97 64 97 85 0 20 -69 67 -181 121 -95 46
-132 54 -160 32 -18 -14 -152 -210 -169 -249 -20 -43 -8 -58 49 -58 48 0 49 0
58 -37 8 -34 12 -38 38 -37 17 0 42 4 58 8 24 7 27 5 27 -14 0 -18 4 -21 23
-16 44 13 82 19 76 12 -3 -3 -47 -26 -97 -51 -51 -24 -117 -63 -147 -85 -48
-35 -64 -42 -123 -47 -79 -7 -122 -26 -122 -53 0 -20 -71 -65 -84 -53 -3 3
-12 0 -20 -6 -15 -13 -7 -56 10 -56 5 0 41 17 81 38 68 35 72 36 78 17 4 -11
18 -26 33 -34 15 -8 55 -35 90 -60 60 -44 62 -47 62 -90 0 -80 31 -130 105
-169 39 -21 39 -22 14 -25 -15 -2 -43 4 -63 12 -43 18 -52 8 -36 -38 8 -25 7
-46 -4 -89 -23 -87 -30 -204 -17 -287 21 -136 103 -271 199 -327 56 -33 40
-43 -20 -12 -100 50 -165 127 -194 228 -9 31 -19 63 -21 71 -10 32 -24 -37
-30 -150 -4 -77 -14 -141 -30 -195 -24 -80 -24 -80 -4 -96 11 -9 46 -20 78
-23 99 -12 93 -5 93 -112 0 -91 -1 -97 -28 -124 -27 -27 -63 -38 -174 -55 -37
-6 -48 -18 -28 -30 16 -10 650 -17 705 -7 42 7 22 9 -120 16 -93 4 -180 10
-193 13 -27 6 -62 80 -62 132 1 20 6 62 13 94 l12 58 66 22 c37 13 83 35 104
51 l37 28 35 -18 c19 -11 55 -36 79 -57 42 -37 44 -41 44 -93 0 -30 -7 -87
-16 -125 -9 -39 -13 -73 -9 -77 10 -11 35 11 55 48 46 88 120 249 120 262 0
24 -32 45 -77 53 -49 8 -168 88 -168 113 0 9 -20 29 -43 45 -67 45 -82 77 -82
173 0 61 8 108 30 185 33 116 36 163 15 259 -18 83 -18 85 2 105 13 13 18 42
21 127 l5 109 -31 -30 c-17 -17 -35 -31 -41 -31 -21 0 -11 32 19 60 29 27 30
32 30 113 0 96 -15 148 -61 212 -18 25 -30 47 -28 49 3 3 43 26 89 51 47 26
102 60 123 76 30 24 240 119 263 119 11 0 -6 -53 -38 -120 -57 -119 -48 -229
22 -265 64 -33 184 -11 230 42 59 66 34 139 -92 271 -43 45 -76 87 -73 92 4 6
33 24 66 41 33 16 57 34 54 39 -10 15 -21 12 -71 -20 -47 -29 -48 -29 -62 -9
-10 15 -11 27 -3 49 7 22 6 40 -4 67 -9 24 -14 31 -14 18z m-757 -185 c-34
-79 -35 -84 -18 -97 11 -8 49 -13 103 -13 69 -1 82 -3 67 -12 -24 -14 -256
-24 -256 -12 0 5 16 33 35 61 19 29 35 55 35 57 0 11 62 107 67 103 2 -3 -13
-42 -33 -87z m708 -319 c17 -24 78 -61 101 -61 9 0 17 -4 17 -10 0 -15 -48
-12 -84 5 -27 13 -66 59 -66 79 0 13 20 5 32 -13z m-492 -22 c0 -6 -7 -35 -16
-65 -11 -40 -15 -87 -12 -174 2 -66 2 -120 1 -120 -19 0 -332 163 -337 175 -7
20 0 35 17 35 34 0 86 23 115 51 18 17 35 29 37 27 2 -2 -7 -37 -20 -78 l-24
-75 62 -28 c114 -53 105 -55 99 21 -6 96 12 203 39 225 24 20 39 22 39 6z
m-140 -107 c0 -22 7 -61 15 -88 19 -62 19 -69 -1 -53 -37 30 -56 115 -38 163
11 29 24 17 24 -22z m-47 -719 c7 -160 17 -211 66 -317 17 -38 29 -71 27 -74
-6 -6 -64 75 -91 128 -27 53 -45 133 -45 198 0 62 21 212 30 212 4 0 10 -66
13 -147z m-89 -315 c18 -112 9 -203 -25 -270 -20 -39 -39 -50 -39 -23 0 8 9
48 20 88 13 45 21 103 21 155 0 82 14 111 23 50z"/>
<path d="M2827 3353 c-27 -7 -18 -46 13 -53 l25 -6 3 -182 c2 -174 3 -182 22
-182 23 0 23 -4 22 205 0 148 7 180 39 172 15 -4 19 0 19 24 l0 29 -62 -1
c-35 -1 -71 -3 -81 -6z"/>
<path d="M2999 3355 c-11 -10 3 -410 15 -417 23 -15 26 -6 26 72 0 63 3 82 15
87 25 9 29 -3 33 -83 4 -72 5 -74 30 -74 l25 0 -6 75 c-4 42 -11 84 -17 94 -6
13 -5 24 5 37 21 27 20 162 -1 192 -12 18 -25 22 -68 22 -29 0 -55 -2 -57 -5z
m86 -120 c0 -56 -3 -70 -16 -73 -12 -2 -17 8 -22 45 -7 65 1 105 22 101 13 -3
16 -17 16 -73z"/>
<path d="M3215 3348 c-6 -21 -34 -218 -40 -288 -3 -36 -8 -80 -12 -97 -5 -30
-3 -33 21 -33 22 0 26 4 26 30 0 19 7 33 19 40 32 17 40 12 43 -27 3 -38 14
-48 35 -35 10 6 10 27 3 87 -6 44 -15 137 -22 208 l-11 127 -29 0 c-16 0 -30
-6 -33 -12z m35 -237 c0 -34 -4 -51 -15 -55 -17 -6 -20 19 -9 73 10 48 24 37
24 -18z"/>
<path d="M3330 3343 c0 -10 8 -83 16 -163 9 -80 18 -166 21 -192 4 -40 8 -47
31 -51 15 -3 30 -3 33 -1 3 2 9 38 13 81 4 43 12 98 18 123 5 25 12 63 14 85
4 48 13 101 21 121 4 10 -2 14 -20 14 -22 0 -27 -6 -31 -32 -3 -18 -10 -63
-16 -99 -5 -36 -10 -82 -10 -102 0 -74 -18 -43 -29 51 -22 184 -22 182 -42
182 -12 0 -19 -7 -19 -17z"/>
<path d="M3526 3352 c-6 -11 -6 -358 0 -393 4 -23 9 -25 59 -25 52 1 55 2 55
27 0 20 -4 25 -22 24 -39 -3 -43 3 -40 66 3 52 7 62 28 71 16 7 24 20 24 36 0
21 -3 23 -25 18 -25 -6 -25 -6 -25 64 0 70 0 71 30 77 21 4 30 11 30 24 0 16
-8 19 -54 19 -30 0 -57 -4 -60 -8z"/>
<path d="M3677 3354 c-9 -9 -9 -314 -1 -375 l6 -44 52 0 c53 0 56 2 56 35 0
16 -7 20 -34 20 l-34 0 1 183 c2 176 1 182 -18 185 -12 2 -24 0 -28 -4z"/>
<path d="M3193 2878 c-48 -13 -55 -50 -51 -266 3 -179 4 -184 27 -203 48 -39
127 -17 137 38 10 51 -1 364 -14 394 -13 33 -56 49 -99 37z m48 -251 c2 -162
-5 -197 -33 -168 -10 9 -12 54 -11 169 3 174 6 194 28 171 10 -11 14 -52 16
-172z"/>
<path d="M2852 2636 l1 -244 24 -5 c13 -2 26 0 29 5 3 5 3 51 -1 103 -4 60 -3
95 4 95 5 0 12 -15 16 -32 27 -131 38 -168 50 -168 23 0 33 24 40 98 4 39 11
75 16 78 9 5 12 -25 13 -126 1 -40 4 -45 23 -45 22 0 22 2 28 214 7 252 5 271
-35 271 -22 0 -30 -6 -39 -31 -6 -18 -11 -45 -11 -62 0 -40 -31 -209 -38 -202
-4 4 -52 266 -52 288 0 4 -15 7 -34 7 l-35 0 1 -244z"/>
<path d="M3357 2873 c-4 -3 -7 -111 -7 -239 0 -224 1 -233 20 -239 35 -11 40
3 40 106 0 54 4 99 8 99 5 0 17 -35 27 -77 28 -123 30 -128 52 -131 19 -3 22
3 27 50 3 29 8 140 12 246 l6 193 -29 -3 -28 -3 -5 -110 c-6 -127 -16 -121
-46 29 -16 83 -18 86 -44 86 -15 0 -30 -3 -33 -7z"/>
<path d="M3578 2868 c-2 -7 -1 -58 2 -113 4 -55 5 -160 2 -232 l-5 -133 37 0
36 0 -6 88 c-4 50 -3 84 2 79 5 -5 21 -43 35 -85 23 -68 29 -77 52 -80 33 -4
35 14 9 73 -10 22 -28 72 -41 110 l-24 70 47 108 c25 59 46 112 46 117 0 6
-13 10 -29 10 -27 0 -31 -6 -55 -67 -28 -72 -45 -105 -47 -88 0 6 0 43 1 83
l1 72 -29 0 c-17 0 -32 -6 -34 -12z"/>
<path d="M2995 2260 c0 -29 4 -50 11 -50 6 0 10 20 10 50 0 28 -5 50 -11 50
-5 0 -10 -23 -10 -50z"/>
<path d="M3368 2293 c-7 -32 6 -78 25 -81 9 -2 17 1 17 7 0 6 -4 11 -10 11
-14 0 -12 37 3 43 10 4 10 6 0 6 -7 1 -13 8 -13 16 0 21 -17 19 -22 -2z"/>
<path d="M3539 2303 c-8 -41 -3 -93 7 -93 8 0 12 11 11 27 -1 19 3 28 16 31
13 3 17 -3 17 -27 0 -38 20 -41 21 -3 0 15 2 37 3 50 3 25 -12 30 -20 7 -4 -8
-13 -15 -21 -15 -9 0 -13 6 -9 15 3 9 0 15 -9 15 -8 0 -16 -3 -16 -7z"/>
<path d="M3133 2283 c-18 -6 -16 -32 2 -39 24 -10 17 -26 -7 -19 -20 5 -21 5
-5 -5 10 -7 25 -9 33 -6 22 8 17 34 -8 42 l-23 8 25 6 c18 4 21 8 10 11 -8 4
-21 4 -27 2z"/>
<path d="M3193 2273 c-4 -9 1 -21 10 -28 24 -17 21 -27 -5 -20 -20 5 -21 5 -5
-5 10 -7 25 -9 33 -6 22 8 17 34 -8 42 l-23 8 25 6 25 6 -23 6 c-16 5 -25 2
-29 -9z"/>
<path d="M3304 2276 c-17 -13 -17 -14 4 -27 29 -18 28 -32 0 -24 -18 6 -20 5
-12 -5 13 -13 54 -5 54 10 0 5 -10 15 -22 22 l-23 12 25 6 c20 5 22 7 8 12 -9
4 -24 1 -34 -6z"/>
<path d="M3047 2273 c-4 -3 -7 -16 -7 -29 0 -26 25 -38 48 -24 14 8 11 10 -13
10 -16 1 -25 4 -18 6 7 3 9 12 6 20 -3 8 -1 14 5 14 6 0 12 -6 15 -12 2 -7 8
-10 12 -6 4 4 4 11 0 17 -7 12 -38 15 -48 4z"/>
<path d="M3436 2253 c10 -40 11 -42 45 -41 22 1 28 5 24 15 -3 8 -5 23 -5 34
0 10 -4 19 -10 19 -5 0 -10 -12 -10 -26 0 -31 -23 -28 -28 4 -2 12 -8 22 -13
22 -5 0 -6 -12 -3 -27z"/>
<path d="M2887 2264 c-14 -15 -6 -34 14 -34 14 0 19 5 17 17 -3 18 -20 27 -31
17z"/>
<path d="M3697 2264 c-14 -15 -6 -34 14 -34 14 0 19 5 17 17 -3 18 -20 27 -31
17z"/>
</g>
</svg>
